# xmcd CD database file
#
# Track frame offsets:
#	150
#	16868
#	32930
#	48608
#	65275
#	83563
#	101465
#	118375
#	138355
#	155035
#	173883
#
# Disc length: 2526 seconds
#
# Revision: 6
# Processed by: cddbd v1.5.2PL0 Copyright (c) Steve Scherf et al.
# Submitted via: CDex 1.70beta3
#
DISCID=9009dc0b
DTITLE=アーミー・オブ・ラバーズ - Massive Luxury Overdose (1st Edition)
DYEAR=1991
DGENRE=Pop
TTITLE0=We Stand United
TTITLE1=Crucified
TTITLE2=Candyman Messiah
TTITLE3=Obsession
TTITLE4=I Cross The Rubicon
TTITLE5=Supernatural
TTITLE6=Ride The Bullet
TTITLE7=Say Goodbye To Babylon
TTITLE8=Flying High
TTITLE9=Walking With A Zombie
TTITLE10=My Army Of Lovers
EXTD=Ton Son Ton\nULT 9502-2 YEAR: 1991
EXTT0=
EXTT1=
EXTT2=
EXTT3=
EXTT4=
EXTT5=
EXTT6=
EXTT7=
EXTT8=
EXTT9=
EXTT10=
PLAYORDER=
